# xmcd
#
# Track frame offsets: 
#        150
#        25055
#        52735
#
# Disc length: 1162 seconds
#
# Revision: 0
# Processed by: cddbd v1.5.1PL0 Copyright (c) Steve Scherf et al.
# Submitted via: ExactAudioCopy v0.95a5
#
DISCID=16048803
DTITLE=Busta Rhymes - What's It Gonna Be?! [CD Single)
DYEAR=1999
DGENRE=Rap
TTITLE0=What's It Gonna Be?! (Featuring Janet)
TTITLE1=Tear Da Roof Off
TTITLE2=Tear Da Roof Off (Video)
EXTD=
EXTT0=
EXTT1=
EXTT2=
PLAYORDER=
